<?xml version="1.0" encoding="UTF-8"?>
<svg id="Layer_2" data-name="Layer 2" xmlns="http://www.w3.org/2000/svg" viewBox="0 0 183.32 72.54">
  <defs>
    <style>
      .cls-1 {
        fill: #e0136e;
      }

      .cls-1, .cls-2 {
        stroke-width: 0px;
      }

      .cls-2 {
        fill: #f2d70e;
      }
    </style>
  </defs>
  <g id="Layer_1-2" data-name="Layer 1">
    <g>
      <g>
        <path class="cls-1" d="M13.44,18.64c1.22-1.35,1.83-2.97,1.83-4.84,0-1.55-.42-2.79-1.27-3.72-.84-.93-2.07-1.39-3.67-1.39-.48,0-.98.05-1.5.15v2.63c.34-.07.71-.1,1.08-.1,1.55,0,2.32.81,2.32,2.43,0,1.17-.34,2.17-1.02,3.01-.68.84-1.57,1.25-2.67,1.25-.59,0-1.07-.16-1.46-.46-.39-.31-.58-.77-.58-1.39l-.03-4.78h1.06v-2.61h-1.06v-1.14c0-1.38-.36-2.46-1.07-3.24-.71-.78-1.7-1.18-2.96-1.18-.46,0-1.02.05-1.68.16v2.66c.17-.02.48-.03.93-.03,1.2,0,1.81.7,1.81,2.09v.67H1.38v2.61h2.14v4.78c0,1.39.49,2.49,1.46,3.28.97.79,2.17,1.19,3.58,1.19,2.03,0,3.66-.68,4.88-2.03Z"/>
        <path class="cls-1" d="M164.64,44.08v.64c0,4.87-1.04,8.5-3.11,10.89-2.07,2.38-5.12,3.58-9.12,3.58s-6.95-1.21-9.04-3.61c-2.09-2.38-3.13-6.01-3.13-10.85v-15.38c0-4.86,1.04-8.49,3.13-10.85,2.09-2.35,5.1-3.54,9.04-3.54s7.05,1.18,9.12,3.53c1.85,2.09,2.87,5.19,3.07,9.3h14.69c-.32-8.22-2.64-14.55-6.97-18.98-4.68-4.8-11.35-7.21-19.99-7.21s-15.21,2.38-19.86,7.14c-1.95,1.99-3.47,4.37-4.6,7.15,1.52,3.96,2.28,8.61,2.28,13.91v14.45c0,5.31-.76,9.95-2.26,13.91,1.14,2.8,2.7,5.18,4.68,7.19,4.7,4.8,11.35,7.21,19.94,7.21s15.17-2.4,19.84-7.22c4.67-4.82,6.98-11.86,6.98-21.08v-.15h-14.69Z"/>
        <path class="cls-1" d="M71.19,11.19c-3.68-5.29-8.98-7.93-15.87-7.93-6.14,0-10.84,2.21-14.08,6.63-3.24,4.42-4.86,10.06-4.86,16.93v.12c0,6.08,4.94,11.01,11.03,11.01h4.54c-.96-3.87-1.43-7.42-1.43-10.65,0-3,.46-5.39,1.38-7.16.92-1.78,2.27-2.66,4.04-2.66,1.98,0,3.48,1.3,4.5,3.91,1.02,2.6,1.54,6.04,1.54,10.3,0,7.66-1.4,13.67-4.2,18.05-2.8,4.38-6.82,6.57-12.08,6.57-12.69,0-19.04-10.14-19.04-30.42,0-6.23.75-12.74,2.25-19.53h-8.64c-2.12,0-4.04,1.02-5.25,2.62.1.1.21.19.3.3,1.05,1.16,1.58,2.69,1.58,4.54,0,2.18-.72,4.09-2.15,5.67h0c-.6.67-1.3,1.19-2.06,1.58-.11,1.69-.17,3.33-.17,4.94,0,14.76,2.93,25.92,8.8,33.5,5.87,7.58,13.99,11.36,24.36,11.36,9.21,0,16.69-3.51,22.42-10.53,5.73-7.02,8.6-16.57,8.6-28.64,0-8.36-1.84-15.19-5.53-20.48Z"/>
        <path class="cls-1" d="M121.42,8.78c-4.67-4.8-11.3-7.21-19.93-7.21s-15.14,2.38-19.77,7.15c-2.11,2.18-3.75,5.69-4.89,8.8,1.35,4.03,2.02,8.61,2.02,13.77,0,7.95-1.19,14.83-3.59,20.67.92,5.94,3.11,9.82,6.57,13.36,4.68,4.8,11.32,7.21,19.87,7.21s15.1-2.42,19.75-7.24c4.63-4.8,6.96-11.84,6.96-21.07v-14.45c0-9.21-2.33-16.21-7-21ZM113.76,44.71c0,4.87-1.02,8.5-3.09,10.89-2.06,2.38-5.08,3.56-9.07,3.56s-6.93-1.19-9-3.59c-2.09-2.4-3.13-6.01-3.13-10.85v-15.38c0-4.86,1.04-8.49,3.13-10.84,2.07-2.37,5.08-3.56,9-3.56s7.02,1.18,9.07,3.53c2.07,2.35,3.09,5.96,3.09,10.87v15.38Z"/>
        <g>
          <polygon class="cls-1" points="171.23 30.88 172.87 30.88 175.14 28.58 175.14 28.52 173.51 28.52 171.23 30.82 171.23 30.88"/>
          <path class="cls-1" d="M183.32,31.5h-18.89v-1.16h-1.66v2.11c-.45-.73-1.18-1.09-2.19-1.09s-1.75.32-2.28.96c-.54.64-.81,1.37-.81,2.19v.72c.66.22,1.16.64,1.5,1.26l-1.27.73v1.75l5.06-2.98v4.97h1.66v-8.09h1.76v1.23l2.25,1.43-2.28,1.59v1.63h-.01s4.93,2.21,4.93,2.21h1.66v-8.09h7.48c.05.26.07.51.07.76,0,.29-.07.53-.21.72-.14.19-.37.29-.67.29-.27,0-.71-.18-1.32-.54-.62-.36-1.16-.54-1.64-.54-.58,0-1.03.17-1.35.51-.31.34-.47.77-.47,1.28,0,.29.03.56.1.83h1.53c-.04-.15-.06-.32-.06-.52,0-.46.2-.69.6-.69.27,0,.64.15,1.12.44.48.29.88.48,1.2.55-.52.11-.92.33-1.21.67-.29.34-.44.78-.44,1.3,0,.39.07.74.21,1.06h1.39c-.1-.34-.14-.63-.14-.87,0-.28.07-.5.2-.66.13-.16.33-.24.59-.24.3,0,.52.1.67.31.15.21.23.48.23.82,0,.59-.17,1.06-.52,1.4-.35.34-.85.51-1.5.51-.74,0-1.31-.24-1.7-.73-.39-.49-.58-1.16-.58-2.03h-1.59c0,1.26.35,2.25,1.04,2.99.69.74,1.64,1.11,2.83,1.11,1.12,0,2-.29,2.64-.87.64-.58.97-1.36.97-2.33,0-.63-.17-1.16-.5-1.59-.33-.43-.8-.7-1.4-.82.52-.11.91-.36,1.18-.74.27-.38.41-.84.41-1.38,0-.34-.03-.67-.09-.97h1.52v-1.36ZM160.28,35.74c-.27-.56-.66-.97-1.19-1.22,0-.51.16-.92.48-1.24.32-.32.75-.48,1.28-.48s.93.14,1.24.42c.31.28.51.65.61,1.12l-2.42,1.4ZM171.08,39.3l-3.22-1.5,2.11-1.53v-1.49l-2.79-1.92h3.91v6.45Z"/>
        </g>
      </g>
      <g>
        <path class="cls-2" d="M12.66,17.07c1.22-1.35,1.83-2.97,1.83-4.84,0-1.55-.42-2.79-1.27-3.72-.84-.93-2.07-1.39-3.67-1.39-.48,0-.98.05-1.5.15v2.63c.34-.07.71-.1,1.08-.1,1.55,0,2.32.81,2.32,2.43,0,1.17-.34,2.17-1.02,3.01-.68.84-1.57,1.25-2.67,1.25-.59,0-1.07-.16-1.46-.46-.39-.31-.58-.77-.58-1.39l-.03-4.78h1.06v-2.61h-1.06v-1.14c0-1.38-.36-2.46-1.07-3.24-.71-.78-1.7-1.18-2.96-1.18-.46,0-1.02.05-1.68.16v2.66c.17-.02.48-.03.93-.03,1.2,0,1.81.7,1.81,2.09v.67H.59v2.61h2.14v4.78c0,1.39.49,2.49,1.46,3.28.97.79,2.17,1.19,3.58,1.19,2.03,0,3.66-.68,4.88-2.03Z"/>
        <path class="cls-2" d="M163.85,42.5v.64c0,4.87-1.04,8.5-3.11,10.89-2.07,2.38-5.12,3.58-9.12,3.58s-6.95-1.21-9.04-3.61c-2.09-2.38-3.13-6.01-3.13-10.85v-15.38c0-4.86,1.04-8.49,3.13-10.85,2.09-2.35,5.1-3.54,9.04-3.54s7.05,1.18,9.12,3.53c1.85,2.09,2.87,5.19,3.07,9.3h14.69c-.32-8.22-2.64-14.55-6.97-18.98-4.68-4.8-11.35-7.21-19.99-7.21s-15.21,2.38-19.86,7.14c-1.95,1.99-3.47,4.37-4.6,7.15,1.52,3.96,2.28,8.61,2.28,13.91v14.45c0,5.31-.76,9.95-2.26,13.91,1.14,2.8,2.7,5.18,4.68,7.19,4.7,4.8,11.35,7.21,19.94,7.21s15.17-2.4,19.84-7.22c4.67-4.82,6.98-11.86,6.98-21.08v-.15h-14.69Z"/>
        <path class="cls-2" d="M70.4,9.62c-3.68-5.29-8.98-7.93-15.87-7.93-6.14,0-10.84,2.21-14.08,6.63-3.24,4.42-4.86,10.06-4.86,16.93v.12c0,6.08,4.94,11.01,11.03,11.01h4.54c-.96-3.87-1.43-7.42-1.43-10.65,0-3,.46-5.39,1.38-7.16.92-1.78,2.27-2.66,4.04-2.66,1.98,0,3.48,1.3,4.5,3.91,1.02,2.6,1.54,6.04,1.54,10.3,0,7.66-1.4,13.67-4.2,18.05-2.8,4.38-6.82,6.57-12.08,6.57-12.69,0-19.04-10.14-19.04-30.42,0-6.23.75-12.74,2.25-19.53h-8.64c-2.12,0-4.04,1.02-5.25,2.62.1.1.21.19.3.3,1.05,1.16,1.58,2.69,1.58,4.54,0,2.18-.72,4.09-2.15,5.67h0c-.6.67-1.3,1.19-2.06,1.58-.11,1.69-.17,3.33-.17,4.94,0,14.76,2.93,25.92,8.8,33.5,5.87,7.58,13.99,11.36,24.36,11.36,9.21,0,16.69-3.51,22.42-10.53,5.73-7.02,8.6-16.57,8.6-28.64,0-8.36-1.84-15.19-5.53-20.48Z"/>
        <path class="cls-2" d="M120.63,7.21c-4.67-4.8-11.3-7.21-19.93-7.21s-15.14,2.38-19.77,7.15c-2.11,2.18-3.75,5.69-4.89,8.8,1.35,4.03,2.02,8.61,2.02,13.77,0,7.95-1.19,14.83-3.59,20.67.92,5.94,3.11,9.82,6.57,13.36,4.68,4.8,11.32,7.21,19.87,7.21s15.1-2.42,19.75-7.24c4.63-4.8,6.96-11.84,6.96-21.07v-14.45c0-9.21-2.33-16.21-7-21ZM112.97,43.14c0,4.87-1.02,8.5-3.09,10.89-2.06,2.38-5.08,3.56-9.07,3.56s-6.93-1.19-9-3.59c-2.09-2.4-3.13-6.01-3.13-10.85v-15.38c0-4.86,1.04-8.49,3.13-10.84,2.07-2.37,5.08-3.56,9-3.56s7.02,1.18,9.07,3.53c2.07,2.35,3.09,5.96,3.09,10.87v15.38Z"/>
        <g>
          <polygon class="cls-2" points="170.84 30.09 172.47 30.09 174.75 27.79 174.75 27.73 173.12 27.73 170.84 30.04 170.84 30.09"/>
          <path class="cls-2" d="M182.93,30.71h-18.89v-1.16h-1.66v2.11c-.45-.73-1.18-1.09-2.19-1.09s-1.75.32-2.28.96c-.54.64-.81,1.37-.81,2.19v.72c.66.22,1.16.64,1.5,1.26l-1.27.73v1.75l5.06-2.98v4.97h1.66v-8.09h1.76v1.23l2.25,1.43-2.28,1.59v1.63h-.01s4.93,2.21,4.93,2.21h1.66v-8.09h7.48c.05.26.07.51.07.76,0,.29-.07.53-.21.72-.14.19-.37.29-.67.29-.27,0-.71-.18-1.32-.54-.62-.36-1.16-.54-1.64-.54-.58,0-1.03.17-1.35.51-.31.34-.47.77-.47,1.28,0,.29.03.56.1.83h1.53c-.04-.15-.06-.32-.06-.52,0-.46.2-.69.6-.69.27,0,.64.15,1.12.44.48.29.88.48,1.2.55-.52.11-.92.33-1.21.67-.29.34-.44.78-.44,1.3,0,.39.07.74.21,1.06h1.39c-.1-.34-.14-.63-.14-.87,0-.28.07-.5.2-.66.13-.16.33-.24.59-.24.3,0,.52.1.67.31.15.21.23.48.23.82,0,.59-.17,1.06-.52,1.4-.35.34-.85.51-1.5.51-.74,0-1.31-.24-1.7-.73-.39-.49-.58-1.16-.58-2.03h-1.59c0,1.26.35,2.25,1.04,2.99.69.74,1.64,1.11,2.83,1.11,1.12,0,2-.29,2.64-.87.64-.58.97-1.36.97-2.33,0-.63-.17-1.16-.5-1.59-.33-.43-.8-.7-1.4-.82.52-.11.91-.36,1.18-.74.27-.38.41-.84.41-1.38,0-.34-.03-.67-.09-.97h1.52v-1.36ZM159.88,34.95c-.27-.56-.66-.97-1.19-1.22,0-.51.16-.92.48-1.24.32-.32.75-.48,1.28-.48s.93.14,1.24.42c.31.28.51.65.61,1.12l-2.42,1.4ZM170.68,38.51l-3.22-1.5,2.11-1.53v-1.49l-2.79-1.92h3.91v6.45Z"/>
        </g>
      </g>
    </g>
  </g>
</svg>