<?xml version="1.0" encoding="UTF-8"?>
<svg id="Layer_2" data-name="Layer 2" xmlns="http://www.w3.org/2000/svg" viewBox="0 0 216.44 32.38">
  <defs>
    <style>
      .cls-1 {
        fill: #f1d60e;
        stroke-width: 0px;
      }
    </style>
  </defs>
  <g id="Layer_1-2" data-name="Layer 1">
    <g>
      <path class="cls-1" d="M25.84,17.37c0,1.15-.16,2.21-.48,3.17,1.69.11,2.93.75,3.73,1.93V7.7H0V3.21h38.51c.88,0,1.55.46,2.01,1.36-.27-1.44-.4-2.73-.4-3.85v-.72h5.42v3.21h3.41v4.49h-3.41v22.43h-5.62V10.19c0-1.04-.14-1.72-.42-2.03-.28-.31-.85-.46-1.71-.46h-3.09v22.43h-5.62c0-3.4-1.63-5.1-4.89-5.1h-1.69c-2.11,1.9-4.75,2.85-7.9,2.85-3.64,0-6.6-1.07-8.89-3.21-2.29-2.14-3.43-5.35-3.43-9.63,0-1.12.08-2.3.24-3.53h5.42c-.19,1.23-.28,2.43-.28,3.61,0,2.65.62,4.63,1.87,5.96,1.24,1.32,2.88,1.99,4.92,1.99,1.9,0,3.34-.55,4.31-1.67.98-1.11,1.46-2.49,1.46-4.15,0-1.02-.19-1.85-.56-2.49-.38-.64-.94-.96-1.69-.96-.64,0-1.14.23-1.5.7-.36.47-.54,1.08-.54,1.83s.15,1.5.44,2.33h-4.81c-.43-.91-.64-1.94-.64-3.09,0-1.93.62-3.45,1.87-4.57,1.24-1.12,2.89-1.69,4.96-1.69,2.43,0,4.39.76,5.88,2.29s2.23,3.45,2.23,5.78Z"/>
      <path class="cls-1" d="M59.94,30.41c-.43.08-.94.12-1.52.12-1.47,0-2.75-.31-3.85-.94-1.1-.63-1.97-1.49-2.63-2.59-.66-1.1-1.14-2.31-1.46-3.65-.32-1.34-.5-2.78-.52-4.33,0-5.59.8-9.36,2.41-11.31h-5.02V3.21h14v4.49h-1.32c-.99,0-1.81.29-2.47.88-.66.59-1.13,1.46-1.42,2.61s-.5,2.31-.6,3.49c-.11,1.18-.16,2.62-.16,4.33,0,4.39,1.22,6.58,3.65,6.58.43,0,.74-.01.92-.04v4.85Z"/>
      <path class="cls-1" d="M83.01,7.7h-3.41v22.43h-5.42v-.04l-.04.04-12.12-8.38v-5.38c3.88-3.16,7.93-5.31,12.16-6.46v-2.21h-14.44V3.21h23.27v4.49ZM66.4,27.16c.59.59.88,1.31.88,2.17s-.29,1.58-.88,2.17c-.59.59-1.31.88-2.17.88s-1.58-.29-2.17-.88-.88-1.31-.88-2.17.29-1.58.88-2.17c.59-.59,1.31-.88,2.17-.88s1.58.29,2.17.88ZM74.18,24.27v-9.03c-2.75,1.1-5.12,2.39-7.1,3.89l7.1,5.14Z"/>
      <path class="cls-1" d="M93.84,7.7h-3.41v22.43h-5.62V10.19c0-1.04-.14-1.72-.42-2.03-.28-.31-.85-.46-1.71-.46h-1.28V3.21h2.01c.88,0,1.55.46,2.01,1.36-.27-1.44-.4-2.73-.4-3.85v-.72h5.42v3.21h3.41v4.49Z"/>
      <path class="cls-1" d="M105.75,19.3l3.17-1.77c-1.07-1.74-2.42-2.86-4.05-3.37v-2.17c0-2.35.78-4.47,2.35-6.36s3.79-2.83,6.68-2.83,4.91,1.02,6.14,3.05V0h5.62v3.21h3.41v4.49h-3.41v22.43h-5.62v-13.32l-14.28,8.26v-5.78ZM110.29,12.04c1.23.59,2.25,1.6,3.05,3.05l6.42-3.61c-.64-2.57-2.26-3.85-4.85-3.85-1.34,0-2.44.42-3.31,1.26-.87.84-1.3,1.89-1.3,3.15Z"/>
      <path class="cls-1" d="M139.9,7.7h-3.41v22.43h-5.62V10.19c0-1.04-.14-1.72-.42-2.03-.28-.31-.85-.46-1.71-.46h-1.28V3.21h2.01c.88,0,1.55.46,2.01,1.36-.27-1.44-.4-2.73-.4-3.85v-.72h5.42v3.21h3.41v4.49Z"/>
      <path class="cls-1" d="M150.89,30.41c-.43.08-.94.12-1.52.12-1.47,0-2.75-.31-3.85-.94-1.1-.63-1.97-1.49-2.63-2.59-.66-1.1-1.14-2.31-1.46-3.65-.32-1.34-.5-2.78-.52-4.33,0-5.59.8-9.36,2.41-11.31h-5.02V3.21h14v4.49h-1.32c-.99,0-1.81.29-2.47.88-.66.59-1.13,1.46-1.42,2.61s-.5,2.31-.6,3.49c-.11,1.18-.16,2.62-.16,4.33,0,4.39,1.22,6.58,3.65,6.58.43,0,.74-.01.92-.04v4.85Z"/>
      <path class="cls-1" d="M189.72,17.37c0,2.51-1.06,4.55-3.17,6.12-2.11,1.56-4.85,2.59-8.22,3.07,2.14.91,3.56,1.54,4.25,1.89l6.22,3.17v.52h-7.78l-10.59-5.46v-3.81c1.12.05,1.98.08,2.57.08,1.58,0,3.04-.09,4.37-.28,1.34-.19,2.57-.49,3.69-.9,1.12-.41,2.01-1,2.65-1.77.64-.76.96-1.67.96-2.71,0-.75-.25-1.32-.74-1.73-.5-.4-1.25-.72-2.27-.96.03.11.04.28.04.52,0,1.52-.68,2.91-2.05,4.15-1.36,1.24-2.94,1.87-4.73,1.87-2.65,0-4.39-.92-5.22-2.77-.13,2.11-.98,3.9-2.55,5.36-1.57,1.46-3.55,2.19-5.96,2.19-2.14,0-3.85-.56-5.12-1.69-1.27-1.12-1.91-2.75-1.91-4.89V7.7h-3.49V3.21h42.12v4.49h-18.86v1.32l1.68.32c.05,0,.09.01.12.04l6.14,1.16c2.67.54,4.65,1.34,5.92,2.41,1.27,1.07,1.91,2.54,1.91,4.41ZM162.12,10.03c2.06.64,3.64,1.29,4.73,1.95,1.1.66,1.87,1.56,2.33,2.71v-6.98h-9.59v1.56l2.53.76ZM161.36,21.22c.94,0,1.66-.33,2.17-1,.51-.67.76-1.47.76-2.41,0-.59-.14-1.06-.42-1.42-.28-.36-.59-.62-.92-.76-.33-.15-.92-.37-1.75-.66l-1.6-.56v4.93c0,1.26.59,1.89,1.76,1.89ZM174.96,17.37c.59,0,1.11-.28,1.56-.84.46-.56.68-1.16.68-1.81,0-.45-.12-.78-.36-.96-.24-.19-.67-.35-1.28-.48l-1.6-.32v3.25c0,.78.33,1.16,1,1.16Z"/>
      <path class="cls-1" d="M213.39,30.13h-5.62c-.16-1.12-.39-2.26-.68-3.41-.29-1.15-.69-2.35-1.18-3.61-.5-1.26-1.13-2.28-1.91-3.07-.78-.79-1.63-1.18-2.57-1.18s-1.59.29-2.05.88c-.46.59-.68,1.36-.68,2.33,0,.75.07,1.48.2,2.21h-5.46c-.24-.99-.36-1.91-.36-2.77,0-2.11.66-3.9,1.97-5.38,1.31-1.47,3.13-2.21,5.46-2.21,3.26,0,5.68,1.59,7.26,4.77V7.7h-16.57V3.21h25.24v4.49h-3.05v22.43Z"/>
    </g>
  </g>
</svg>