<?xml version="1.0" encoding="UTF-8"?>
<svg xmlns="http://www.w3.org/2000/svg" viewBox="0 0 167.72 48.37">
  <defs>
    <style>
      .cls-1 {
        isolation: isolate;
      }

      .cls-2 {
        fill: #ffef00;
      }

      .cls-2, .cls-3, .cls-4, .cls-5 {
        stroke-width: 0px;
      }

      .cls-3 {
        fill: #d31c5c;
      }

      .cls-4 {
        fill: #fae46e;
      }

      .cls-5 {
        fill: #1e1e1e;
      }

      .cls-6 {
        mix-blend-mode: multiply;
      }
    </style>
  </defs>
  <g class="cls-1">
    <g id="Layer_2" data-name="Layer 2">
      <g id="Layer_1-2" data-name="Layer 1">
        <g>
          <g>
            <path class="cls-2" d="M143.54,47.21H24.18c-12.72,0-23.03-10.31-23.03-23.03S11.46,1.15,24.18,1.15h119.36c12.72,0,23.03,10.31,23.03,23.03s-10.31,23.03-23.03,23.03"/>
            <path class="cls-3" d="M143.54,48.37H24.18C10.85,48.37,0,37.52,0,24.18S10.85,0,24.18,0h119.36c13.33,0,24.18,10.85,24.18,24.18s-10.85,24.18-24.18,24.18ZM24.18,2.31C12.12,2.31,2.31,12.12,2.31,24.18s9.81,21.88,21.88,21.88h119.36c12.06,0,21.88-9.81,21.88-21.88s-9.81-21.88-21.88-21.88H24.18Z"/>
            <g class="cls-6">
              <path class="cls-4" d="M2.17,24.08h0C2.17,11.55,13.75,2.41,21.96,2.41h123.76c8.22,0,19.84,9.14,19.84,21.67S2.17,36.61,2.17,24.08"/>
            </g>
          </g>
          <g>
            <path class="cls-5" d="M36.4,19.69h-3.45v20.54h-4.22v-20.54h-3.49v-3.45h3.49v-1.42c0-2.5.76-4.38,2.29-5.65,1.53-1.27,3.73-1.91,6.62-1.91,3.22,0,6.42.59,9.6,1.78v3.27c-3.2-1.07-6.31-1.6-9.34-1.6-1.75,0-3,.34-3.76,1.02-.76.68-1.14,1.71-1.14,3.09v1.42h3.42v3.45Z"/>
            <path class="cls-5" d="M55.82,19.69h-3.45v20.54h-4.11v-.04l-.04.04-11.12-8v-4.22c3.54-3.03,7.26-5.07,11.16-6.11v-2.22h-13.31v-3.45h20.87v3.45ZM48.25,35.65v-9.74c-2.71,1.02-5.19,2.42-7.42,4.22l7.42,5.53Z"/>
            <path class="cls-5" d="M54.36,16.23h25.05v3.45h-3.16c.14.78.22,1.58.22,2.4,0,1.41-.38,2.58-1.13,3.53-.75.95-1.84,1.58-3.27,1.89,1.41.34,2.5,1.05,3.27,2.13.78,1.08,1.16,2.39,1.16,3.94,0,2.4-.79,4.35-2.38,5.85-1.59,1.5-3.8,2.25-6.63,2.25-3,0-5.43-.96-7.29-2.89-1.85-1.93-2.78-4.56-2.78-7.91,0-.31.02-.76.07-1.34h4.18c-.02.34-.04.82-.04,1.45,0,4.87,1.95,7.31,5.85,7.31,1.67,0,2.93-.42,3.78-1.27s1.27-2.04,1.27-3.56c0-1.91-.75-2.87-2.25-2.87-.68,0-1.19.21-1.53.64-.34.42-.51.99-.51,1.69,0,.58.12,1.31.36,2.18h-3.53c-.34-.85-.51-1.75-.51-2.69,0-1.28.33-2.35,1-3.2.67-.85,1.6-1.42,2.82-1.71-1.65-.39-2.81-1.32-3.49-2.8-.32.85-.88,1.56-1.71,2.13-.82.57-1.85.85-3.09.85s-2.35-.28-3.42-.84v-3.56c1.11.48,2.17.73,3.16.73,1.19,0,2.02-.35,2.49-1.05s.71-1.79.71-3.27h-8.69v-3.45ZM70.07,24.41c1.55,0,2.33-.93,2.33-2.8,0-.68-.07-1.32-.22-1.93h-5.05c.05,3.15,1.03,4.73,2.94,4.73Z"/>
            <path class="cls-5" d="M89.12,19.69h-3.45v20.54h-4.22v-18.03c0-.95-.15-1.6-.44-1.96-.29-.36-.85-.55-1.67-.55h-1.38v-3.45h1.85c.95,0,1.65.47,2.11,1.42-.24-1.36-.36-2.54-.36-3.56v-.8h4.11v2.95h3.45v3.45Z"/>
            <path class="cls-5" d="M98.82,19.69h-3.45v20.54h-4.22v-20.54h-3.49v-3.45h3.49v-1.42c0-2.5.76-4.38,2.29-5.65,1.53-1.27,3.73-1.91,6.62-1.91,3.22,0,6.42.59,9.6,1.78v3.27c-3.2-1.07-6.31-1.6-9.34-1.6-1.75,0-3,.34-3.76,1.02-.76.68-1.14,1.71-1.14,3.09v1.42h3.42v3.45Z"/>
            <path class="cls-5" d="M118.24,19.69h-3.45v20.54h-4.11v-.04l-.04.04-11.12-8v-4.22c3.54-3.03,7.26-5.07,11.16-6.11v-2.22h-13.31v-3.45h20.87v3.45ZM103.91,39.39c0,.68-.24,1.25-.73,1.73-.49.47-1.07.71-1.75.71s-1.25-.24-1.73-.71-.71-1.05-.71-1.73.24-1.26.71-1.75c.47-.48,1.05-.73,1.73-.73s1.26.24,1.75.71c.48.47.73,1.06.73,1.76ZM110.67,35.65v-9.74c-2.71,1.02-5.19,2.42-7.42,4.22l7.42,5.53Z"/>
            <path class="cls-5" d="M142.48,19.69h-25.7v-3.45h25.7v3.45ZM140.12,28.92c0,2.93-.92,5.36-2.76,7.27-1.84,1.92-4.34,2.87-7.49,2.87-3.32,0-5.97-1.09-7.94-3.27-1.98-2.18-2.96-5.26-2.96-9.23,0-1.16.06-2.17.18-3.02h4.04c-.1.85-.15,1.84-.15,2.98,0,2.67.59,4.82,1.76,6.45,1.17,1.64,2.87,2.45,5.07,2.45,1.94,0,3.42-.6,4.45-1.8,1.03-1.2,1.54-2.77,1.54-4.71,0-1.19-.2-2.15-.6-2.87-.4-.73-1.02-1.09-1.87-1.09-.7,0-1.25.25-1.64.76-.39.51-.58,1.19-.58,2.04,0,.8.13,1.66.4,2.58h-3.93c-.36-.85-.54-1.79-.54-2.83,0-1.72.54-3.15,1.64-4.29,1.09-1.14,2.59-1.71,4.51-1.71,2.06,0,3.72.72,4.98,2.16,1.26,1.44,1.89,3.19,1.89,5.25Z"/>
          </g>
        </g>
      </g>
    </g>
  </g>
</svg>