<?xml version="1.0" encoding="UTF-8"?>
<svg id="Layer_2" data-name="Layer 2" xmlns="http://www.w3.org/2000/svg" viewBox="0 0 158.97 27.91">
  <defs>
    <style>
      .cls-1 {
        fill: #fff;
        stroke-width: 0px;
      }
    </style>
  </defs>
  <g id="Layer_1-2" data-name="Layer 1">
    <g>
      <path class="cls-1" d="M7.28,8.55h-2v13.13H2v-13.13H0v-2.63h2v-.99c0-1.66.54-2.9,1.61-3.71,1.07-.81,2.54-1.22,4.41-1.22,1.11,0,2.27.13,3.47.39,1.2.26,2.12.53,2.76.81v2.49c-.69-.25-1.61-.49-2.76-.72-1.15-.23-2.22-.34-3.21-.34-1.97,0-2.96.76-2.96,2.28v1.01h1.97v2.63Z"/>
      <path class="cls-1" d="M22.04,14.83c0,1.94-.6,3.57-1.81,4.89-1.21,1.32-2.88,1.97-5.03,1.97-2.27,0-4.12-.74-5.54-2.22-1.43-1.48-2.14-3.57-2.14-6.26,0-.77.03-1.43.09-2h3.24c-.06.56-.09,1.18-.09,1.86,0,1.9.41,3.34,1.22,4.32.81.99,1.89,1.48,3.22,1.48,1.24,0,2.18-.36,2.82-1.07.64-.71.96-1.66.96-2.85-.83.39-1.67.59-2.51.59-1.27,0-2.24-.34-2.9-1.03-.67-.69-1-1.68-1-2.98v-2.96h-6.23v-2.63h16.87v2.63h-7.35v2.91c0,.83.42,1.25,1.27,1.25s2.29-.49,4.23-1.46c.45,1.11.68,2.3.68,3.57Z"/>
      <path class="cls-1" d="M35.67,21.69h-3.29v-3.97c0-1.54-.48-2.3-1.43-2.3-.31,0-.61.13-.88.4-.27.27-.53.59-.78.97-.24.38-.52.77-.82,1.16-.31.39-.72.72-1.26.99-.53.27-1.16.4-1.88.4-.64,0-1.25-.09-1.83-.28v-2.7c.42.13.88.19,1.36.19.3,0,.58-.08.86-.25.27-.16.48-.33.61-.48s.33-.43.6-.83c.27-.4.45-.66.54-.79-.19-1.05-.61-1.84-1.28-2.37-.67-.53-1.52-.8-2.55-.8v-2.47h-1.36v-2.63h15.41v2.63h-2.02v13.13ZM30.22,12.64c1,0,1.72.3,2.16.92v-5h-5.71c1.82.78,2.97,2.15,3.45,4.09h.09Z"/>
      <path class="cls-1" d="M54.72,15.41c0,1.47-.4,2.62-1.19,3.45-.79.83-1.88,1.25-3.28,1.25-.22,0-.38,0-.49-.02v-2.96h.24c1.03,0,1.55-.57,1.55-1.71,0-.77-.28-1.4-.83-1.9-.56-.5-1.34-.78-2.36-.85v9.02h-3.17v-.02l-.02.02-7.1-4.91v-3.15c1.28-1.03,2.47-1.87,3.55-2.5,1.08-.63,2.27-1.08,3.57-1.33v-1.25h-8.46v-2.63h19.27v2.63h-7.64v1.25c1.68.05,3.16.58,4.44,1.59,1.28,1.01,1.93,2.35,1.93,4.03ZM45.18,18.26v-5.5c-1.36.45-2.76,1.28-4.21,2.47l4.21,3.03Z"/>
      <path class="cls-1" d="M62.34,8.55h-2v13.13h-3.29v-11.68c0-.61-.08-1.01-.25-1.19-.17-.18-.5-.27-1-.27h-.75v-2.63h1.17c.52,0,.91.27,1.17.8-.16-.85-.24-1.6-.24-2.26v-.42h3.17v1.88h2v2.63Z"/>
      <path class="cls-1" d="M77.09,14.83c0,1.94-.6,3.57-1.81,4.89-1.21,1.32-2.88,1.97-5.03,1.97-2.27,0-4.12-.74-5.54-2.22s-2.14-3.57-2.14-6.26c0-.77.03-1.43.09-2h3.24c-.06.56-.09,1.18-.09,1.86,0,1.9.41,3.34,1.22,4.32.81.99,1.89,1.48,3.22,1.48,1.24,0,2.18-.36,2.82-1.07s.96-1.66.96-2.85c-.83.39-1.67.59-2.51.59-1.27,0-2.24-.34-2.9-1.03-.67-.69-1-1.68-1-2.98v-2.96h-6.23v-2.63h11.63c.03-.31.05-.56.05-.75,0-.88-.51-1.32-1.53-1.32-.42,0-1.21.07-2.36.22-1.15.15-2.02.22-2.6.22-1.25,0-2.18-.17-2.79-.52V1.27c.66.27,1.5.4,2.51.4.41,0,1.32-.09,2.73-.28,1.41-.19,2.4-.28,2.96-.28,1.27,0,2.26.31,2.98.94.72.63,1.08,1.51,1.08,2.66,0,.31-.03.72-.09,1.22h2.3v2.63h-7.36v2.91c0,.83.42,1.25,1.27,1.25s2.29-.49,4.23-1.46c.46,1.11.68,2.3.68,3.57Z"/>
      <path class="cls-1" d="M82.78,10.32c1.82,0,3.19.71,4.11,2.14v-3.9h-9.56v-2.63h16.94c0-.08,0-.2.01-.35,0-.16.01-.25.01-.28,0-.49-.08-.85-.25-1.08-.16-.24-.49-.35-.97-.35-.34,0-1.03.07-2.04.22-1.02.15-1.78.22-2.28.22-1.05,0-1.86-.17-2.44-.52V1.27c.49.27,1.2.4,2.14.4.49,0,1.28-.09,2.38-.28,1.1-.19,1.98-.28,2.62-.28,1.24,0,2.18.33,2.84.97.66.65.99,1.56.99,2.74,0,.38-.03.74-.09,1.1h1.93v2.63h-8.93v9.3c0,.39.12.7.38.92.25.22.57.33.96.33.92,0,1.66-.37,2.22-1.12.56-.74.83-1.56.83-2.46,0-1.27-.67-1.9-2-1.9-.34,0-.67.03-.99.09v-2.87c.49-.11.98-.16,1.48-.16,1.52,0,2.7.44,3.54,1.32.84.88,1.26,2.05,1.26,3.52,0,1.66-.58,3.14-1.75,4.44-1.17,1.3-2.7,1.95-4.59,1.95-1.27,0-2.36-.37-3.27-1.1s-1.36-1.72-1.36-2.96v-.16c0-1.16-.29-2.2-.88-3.11-.59-.92-1.44-1.38-2.57-1.38-.58,0-1.01.17-1.29.52-.28.34-.42.8-.42,1.36,0,.44.04.87.12,1.29h-3.2c-.14-.59-.21-1.14-.21-1.62,0-1.24.38-2.29,1.15-3.15.77-.86,1.83-1.29,3.2-1.29Z"/>
      <path class="cls-1" d="M122.04,15.41c0,1.47-.4,2.62-1.19,3.45s-1.88,1.25-3.28,1.25c-.22,0-.38,0-.49-.02v-2.96h.23c1.03,0,1.55-.57,1.55-1.71,0-.77-.28-1.4-.83-1.9-.56-.5-1.34-.78-2.36-.85v9.02h-3.17v-.02l-.02.02-7.1-4.91v-3.15c1.28-1.03,2.47-1.87,3.55-2.5,1.08-.63,2.27-1.08,3.57-1.33v-1.25h-8.46v-2.63h19.27v2.63h-7.64v1.25c1.68.05,3.16.58,4.44,1.59,1.29,1.01,1.93,2.35,1.93,4.03ZM112.5,18.26v-5.5c-1.36.45-2.77,1.28-4.21,2.47l4.21,3.03Z"/>
      <path class="cls-1" d="M119.93,27.51c-.91-.96-1.86-1.78-2.84-2.47-.44,1.91-1.58,2.87-3.43,2.87-1.08,0-1.97-.29-2.68-.87-.71-.58-1.06-1.35-1.06-2.3,0-1,.34-1.81,1.02-2.43.68-.62,1.6-.93,2.76-.93s2.33.31,3.42.92c1.09.61,2.02,1.33,2.81,2.16v3.05ZM113.7,25.73c.77,0,1.21-.59,1.32-1.76-.5-.16-.92-.24-1.27-.24s-.64.09-.85.27c-.2.18-.31.42-.31.72,0,.31.1.56.31.74.2.18.47.27.8.27Z"/>
      <path class="cls-1" d="M124.42,15.34l1.86-1.03c-.63-1.02-1.42-1.68-2.37-1.97v-1.27c0-1.38.46-2.62,1.37-3.72.92-1.1,2.22-1.66,3.91-1.66s2.88.59,3.6,1.79v-3.43h3.29v1.88h2v2.63h-2v13.13h-3.29v-7.8l-8.37,4.84v-3.38ZM127.07,11.09c.72.34,1.32.94,1.79,1.79l3.76-2.11c-.38-1.5-1.32-2.26-2.84-2.26-.78,0-1.43.25-1.94.74-.51.49-.76,1.11-.76,1.84Z"/>
      <path class="cls-1" d="M150.12,21.69h-3.29c-.09-.66-.23-1.32-.4-2-.17-.67-.4-1.38-.69-2.12-.29-.74-.66-1.33-1.12-1.8s-.96-.69-1.5-.69-.93.17-1.2.52c-.27.34-.4.8-.4,1.36,0,.44.04.87.12,1.29h-3.2c-.14-.58-.21-1.12-.21-1.62,0-1.24.38-2.29,1.15-3.15.77-.86,1.83-1.29,3.2-1.29,1.91,0,3.33.93,4.25,2.8v-6.44h-9.7v-2.63h14.78v2.63h-1.79v13.13Z"/>
      <path class="cls-1" d="M158.28,9.59l-1.32.95-.78-1.08c-.15-.2-.25-.4-.3-.59-.07.17-.18.37-.33.58l-.81,1.1-1.3-.96.79-1.08c.14-.18.3-.34.48-.48-.21,0-.43-.04-.67-.12l-1.29-.42.51-1.53,1.27.41c.24.08.44.19.62.32-.06-.22-.1-.45-.1-.69v-1.34h1.62v1.34c0,.26-.04.48-.11.69.16-.12.36-.22.62-.3l1.29-.41.49,1.53-1.26.41c-.23.07-.46.11-.69.11h-.03c.21.16.38.32.49.49l.79,1.1Z"/>
    </g>
  </g>
</svg>