<?xml version="1.0" encoding="UTF-8"?>
<svg id="Layer_2" data-name="Layer 2" xmlns="http://www.w3.org/2000/svg" viewBox="0 0 51.38 9.39">
  <defs>
    <style>
      .cls-1 {
        fill: #fff;
        stroke-width: 0px;
      }
    </style>
  </defs>
  <g id="Layer_1-2" data-name="Layer 1">
    <g>
      <polygon class="cls-1" points="2.99 4.84 4.22 6.07 3.86 6.44 2.63 5.22 2.63 6.94 2.09 6.94 2.09 5.22 .86 6.44 .5 6.07 1.72 4.84 0 4.84 0 4.31 1.71 4.31 .5 3.09 .86 2.71 2.09 3.94 2.09 2.2 2.63 2.2 2.63 3.93 3.88 2.66 4.22 3.08 3 4.31 4.74 4.31 4.74 4.84 2.99 4.84"/>
      <path class="cls-1" d="M11.47,2.79v5.97h-.76v-4.45c0-.33-.1-.63-.3-.92-.22-.31-.49-.46-.81-.46-.26,0-.48.09-.67.27-.18.18-.28.4-.28.67,0,.71.25,1.06.75,1.06.16,0,.35-.07.55-.22l.09-.07v.86c-.22.23-.5.35-.83.35-.28,0-.54-.16-.78-.49-.04-.07-.13-.2-.27-.39-.27.61-.67.91-1.2.91-.36,0-.62-.15-.8-.45v-.8c.21.24.43.36.67.36.53,0,.79-.39.79-1.17,0-.68-.51-1.02-1.52-1.03h-.59v-.67h1.35c.49,0,.92.36,1.3,1.07.1-.3.26-.55.47-.76.22-.21.47-.31.75-.31.43,0,.85.29,1.26.86v-.86h1.56v.67h-.74Z"/>
      <path class="cls-1" d="M11.94,2.12h7.26v.64h-7.26v-.64ZM15.9,8.76c-.8,0-1.48-.27-2.06-.83-.37-.36-.81-.98-1.32-1.88l.44-.58c.9,1.69,1.79,2.54,2.66,2.54.58,0,1.07-.19,1.47-.59.4-.39.6-.88.6-1.45,0-.52-.2-.99-.59-1.41-.4-.42-.85-.63-1.37-.63-.55,0-.83.2-.83.61,0,.19.07.35.22.47.15.13.31.2.5.21l-.38.61c-.35,0-.64-.14-.88-.41-.24-.27-.36-.58-.36-.93,0-.43.18-.77.55-1.01.31-.22.7-.32,1.15-.32.72,0,1.36.28,1.92.83.56.55.84,1.18.84,1.9,0,.85-.21,1.53-.64,2.04-.45.56-1.1.84-1.93.84"/>
      <polygon class="cls-1" points="17.14 1.85 16.17 1.82 18.25 0 18.92 .01 17.14 1.85"/>
      <path class="cls-1" d="M27.83,2.79v5.94h-.78c0-.23,0-.58.03-1.04.02-.46.03-.81.03-1.04,0-1.11-.11-1.79-.33-2.02-.99.45-2.11,1.02-3.37,1.69l-.37-.58c.18-.36.27-.67.27-.93,0-.31-.07-.54-.2-.67-.13-.13-.35-.22-.66-.26l-.25-.65c.28-.34.66-.61,1.14-.8.45-.19.92-.28,1.38-.28.54,0,.97.13,1.31.38.27.2.61.6,1.02,1.18v-1.61h1.61v.67h-.83ZM24.8,2.92c-.45,0-.97.19-1.54.56.5.24.75.57.75,1.01,0,.17-.06.41-.19.7l2.5-1.2c-.11-.3-.31-.55-.61-.76-.29-.21-.6-.31-.91-.31"/>
      <path class="cls-1" d="M27.04,9.39c-.33-.46-.72-.69-1.19-.69-.21,0-.51.06-.9.18-.39.12-.69.18-.9.18-.81,0-1.54-.47-2.19-1.39l.36-.52c.48.76,1.07,1.14,1.77,1.14.19,0,.46-.05.82-.16.36-.1.64-.16.83-.16.47,0,.94.2,1.42.59v-2.24h.78v3.06h-.8Z"/>
      <path class="cls-1" d="M31.61,9.19c-.88,0-1.46-.14-1.74-.43-.65-.68-.97-1.52-.97-2.52,0-.6.19-1.2.56-1.82.24-.4.66-.94,1.27-1.63h-2.33v-.67h3.75v.67c-.62.24-1.19.69-1.7,1.33-.53.68-.79,1.34-.79,1.98,0,1.61.66,2.41,1.99,2.41.19,0,.39-.08.6-.24v.78c-.19.1-.41.14-.65.14"/>
      <path class="cls-1" d="M37.29,2.79v5.96h-.78c-.99-.8-2.49-1.43-4.52-1.87l-.25-.87,2.54-1.1c-.17-.38-.55-.69-1.13-.95-.48-.21-.96-.32-1.43-.35v-.83h-.6v-.67h6.85v.67h-.69ZM36.51,2.79h-3.79c1.08.59,1.88,1.17,2.37,1.75v.87s-1.84.89-1.84.89c.76.29,1.33.52,1.68.68.64.3,1.16.6,1.57.91V2.79Z"/>
      <polygon class="cls-1" points="39.51 2.79 39.51 8.75 38.73 8.75 38.73 2.79 37.75 2.79 37.75 2.12 40.4 2.12 40.4 2.79 39.51 2.79"/>
      <path class="cls-1" d="M45.18,2.79c.23.79.81,1.18,1.74,1.18.12,0,.24,0,.36-.02l.58.71c-.45.94-.68,1.63-.68,2.09,0,1,.12,1.68.37,2.02l-.52.28c-.36-.53-.55-1.14-.55-1.85,0-.41.05-.81.13-1.21.04-.17.16-.59.36-1.27-.6-.07-1.14-.26-1.62-.59-.54-.37-.87-.83-.97-1.37-.83.59-1.24,1.24-1.24,1.93,0,.45.18.67.55.67.19,0,.4-.06.61-.18.21-.12.37-.26.46-.42h.79c.17.26.26.69.26,1.28,0,1.52-.8,2.27-2.39,2.27-.29,0-.6-.08-.92-.23-.13-.06-.4-.22-.81-.48-.25-.41-.6-1.04-1.03-1.91l.45-.42c.19.55.56,1.2,1.11,1.94l.05-.05.54.27c.21.1.4.16.57.16.48,0,.87-.12,1.17-.36.33-.26.5-.62.5-1.08,0-.23-.07-.45-.2-.65-.37.41-.78.61-1.21.61-.41,0-.72-.14-.94-.41-.22-.27-.33-.62-.33-1.04,0-.55.27-1.17.8-1.86h-3.01v-.67h8.28v.67h-3.26Z"/>
      <path class="cls-1" d="M50.51,2.79c-.43.59-.65,1.08-.65,1.48,0,.38.15.92.43,1.63.29.71.43,1.25.43,1.63,0,.83-.65,1.32-1.96,1.46l.1-.66c.72-.14,1.08-.44,1.08-.9,0-.34-.15-.84-.45-1.49-.3-.65-.45-1.14-.45-1.47,0-.41.22-.97.66-1.67h-1.52v-.67h3.19v.67h-.87Z"/>
    </g>
  </g>
</svg>