<?xml version="1.0" encoding="UTF-8"?>
<svg id="Layer_2" data-name="Layer 2" xmlns="http://www.w3.org/2000/svg" viewBox="0 0 213.47 86.22">
  <defs>
    <style>
      .cls-1 {
        fill: #a30c54;
      }

      .cls-1, .cls-2, .cls-3 {
        stroke-width: 0px;
      }

      .cls-2 {
        fill: #e0136d;
      }

      .cls-3 {
        fill: #fff;
      }
    </style>
  </defs>
  <g id="Layer_1-2" data-name="Layer 1">
    <g>
      <path class="cls-1" d="M205.09,49.41h-1.12c-.06-2.87-.97-5.19-2.71-6.9-1.79-1.77-4.28-2.66-7.42-2.66-1.43,0-3.27.19-5.62.6-2.54.43-3.75.52-4.31.52-1.87,0-2.7-.3-3.03-.48-.38-.21-.8-.31-1.21-.31-.44,0-.89.12-1.29.35-.77.45-1.24,1.28-1.24,2.17v4.99c0,.65.25,1.26.68,1.72h-15.96c-.02-2.98-1.04-5.36-3.01-7.08-1.9-1.65-4.45-2.48-7.58-2.48-1.24,0-3.27.19-6.21.58-3.51.47-4.69.54-5.08.54-1.69,0-3.05-.2-4.04-.61-.31-.12-.63-.18-.95-.18-.5,0-.99.15-1.41.43-.7.47-1.11,1.25-1.11,2.09v4.99c0,.65.25,1.26.68,1.72h-2.48v-1.21c0-1.39-1.13-2.52-2.52-2.52h-6.3c-1.39,0-2.52,1.13-2.52,2.52v.84c0,.12,0,.24,0,.37H38.29c.55-.48.87-1.17.87-1.91v-4.94c0-1-.59-1.91-1.51-2.31-1.44-.63-3.39-1.21-5.96-1.77-2.54-.55-5.04-.83-7.41-.83-4.25,0-7.7.99-10.27,2.94-2.65,2.01-4.06,4.98-4.18,8.81h-1.45c-1.39,0-2.52,1.13-2.52,2.52v5.22c0,1.39,1.13,2.52,2.52,2.52h1.44v23.55c0,1.39,1.13,2.52,2.52,2.52h6.53c1.39,0,2.52-1.13,2.52-2.52v-10.96c.76,3.32,2.2,6.1,4.33,8.31,3.31,3.44,7.62,5.18,12.82,5.18s8.96-1.59,11.84-4.74c.82-.89,1.52-1.85,2.1-2.87.06,1.03.75,1.93,1.74,2.25,1.4.45,2.88.68,4.42.68,1.82,0,3.45-.36,4.86-1.06,1.39-.7,2.52-1.59,3.36-2.66.65-.83,1.25-1.68,1.78-2.51.37-.59.76-1.09,1.17-1.47.01-.01.02-.02.03-.03.1.23.28.8.28,2v7.88c0,1.39,1.13,2.52,2.52,2.52h6.53c1.39,0,2.52-1.13,2.52-2.52v-8.57c.19.35.46.66.8.9l14.08,9.75c.43.3.94.45,1.44.45h6.34c1.39,0,2.52-1.13,2.52-2.52v-.66c.33.04.73.06,1.25.06,3.47,0,6.28-1.09,8.33-3.25,1.27-1.33,2.14-2.96,2.62-4.87v8.72c0,1.39,1.13,2.52,2.52,2.52h6.53c1.39,0,2.52-1.13,2.52-2.52v-10.96c.76,3.32,2.2,6.1,4.33,8.31,3.31,3.44,7.62,5.18,12.82,5.18s8.96-1.59,11.84-4.74c1.65-1.8,2.83-3.86,3.52-6.16.38.23.82.36,1.29.36h6.34c.75,0,1.46-.33,1.94-.91s.68-1.34.54-2.07c-.13-.68-.19-1.39-.19-2.1,0-.35.05-.84.27-1.11.03-.02.2-.1.61-.1,1.39,0,2.28.47,2.98,1.57.91,1.42,1.35,2.99,1.35,4.82v.33c0,3.2,1.26,5.91,3.64,7.84,2.25,1.83,4.97,2.76,8.07,2.76,4.49,0,8.19-1.58,11-4.71,2.73-3.05,4.12-6.58,4.12-10.5,0-3.58-1.07-6.52-3.19-8.74-1.11-1.16-2.43-2.02-3.96-2.59h7.11c1.39,0,2.52-1.13,2.52-2.52v-5.22c0-1.39-1.13-2.52-2.52-2.52Z"/>
      <path class="cls-2" d="M201.45,49.74c0-2.33-.65-4.14-1.96-5.43-1.31-1.29-3.19-1.94-5.64-1.94-1.28,0-3.01.19-5.2.56-2.19.37-3.77.56-4.73.56-1.87,0-3.28-.26-4.24-.79v4.99c1.15.68,2.77,1.03,4.85,1.03.99,0,2.5-.15,4.52-.44,2.02-.3,3.37-.44,4.06-.44.96,0,1.61.23,1.94.7.33.47.49,1.18.49,2.15,0,.06,0,.25-.02.56-.02.31-.02.54-.02.7h-36.33c.12-.99.19-1.8.19-2.43,0-2.27-.72-4.03-2.15-5.27-1.43-1.24-3.4-1.87-5.92-1.87-1.12,0-3.08.19-5.88.56-2.8.37-4.6.56-5.41.56-2.02,0-3.68-.26-4.99-.79v4.99c1.21.68,3.06,1.03,5.55,1.03,1.15,0,2.87-.15,5.15-.44,2.29-.3,3.85-.44,4.69-.44,2.02,0,3.03.87,3.03,2.61,0,.37-.03.87-.09,1.49h-25.18v-3.73h-6.3v.84c0,1.31.16,2.8.47,4.48-.53-1.06-1.31-1.59-2.33-1.59H18.91v-2.01c0-3.02,1.96-4.52,5.88-4.52,1.96,0,4.08.23,6.37.68,2.29.45,4.11.93,5.48,1.42v-4.94c-1.28-.56-3.1-1.1-5.48-1.61-2.38-.51-4.67-.77-6.88-.77-3.7,0-6.62.81-8.74,2.43-2.13,1.62-3.19,4.07-3.19,7.37v1.96h-3.96v5.22h3.96v26.07h6.53v-26.07h14.46v5.88c0,2.58.66,4.56,1.98,5.92,1.32,1.37,3.24,2.05,5.76,2.05,1.68,0,3.34-.39,4.99-1.17,0,2.36-.64,4.25-1.91,5.67-1.28,1.42-3.14,2.12-5.6,2.12-2.64,0-4.77-.98-6.39-2.94-1.62-1.96-2.43-4.82-2.43-8.58,0-1.34.06-2.57.19-3.68h-6.44c-.12,1.12-.19,2.44-.19,3.96,0,5.35,1.41,9.49,4.24,12.43,2.83,2.94,6.5,4.41,11.01,4.41,4.26,0,7.59-1.31,9.98-3.92,2.39-2.61,3.59-5.85,3.59-9.7,0-2.52-.45-4.88-1.35-7.09-3.86,1.93-6.65,2.89-8.39,2.89s-2.52-.82-2.52-2.47v-5.78h15.44v4.9c2.05,0,3.74.53,5.06,1.59,1.32,1.06,2.17,2.63,2.54,4.71-.19.25-.54.77-1.07,1.56-.53.79-.93,1.35-1.19,1.66-.26.31-.67.63-1.21.96-.54.33-1.11.49-1.7.49-.96,0-1.87-.12-2.71-.37v5.36c1.15.37,2.36.56,3.64.56,1.43,0,2.67-.26,3.73-.79,1.06-.53,1.89-1.18,2.5-1.96.61-.78,1.15-1.55,1.63-2.31.48-.76.99-1.41,1.54-1.94.54-.53,1.13-.79,1.75-.79,1.9,0,2.84,1.52,2.84,4.57v7.88h6.53v-26.07h18.89v2.47c-2.58.5-4.94,1.38-7.09,2.63-2.15,1.26-4.49,2.91-7.04,4.97v6.25l14.08,9.75.05-.05v.05h6.3v-17.91c2.02.12,3.58.68,4.69,1.68,1.1,1,1.66,2.25,1.66,3.78,0,2.27-1.03,3.4-3.08,3.4h-.47v5.88c.22.03.54.05.98.05,2.77,0,4.94-.82,6.51-2.47,1.57-1.65,2.36-3.93,2.36-6.86,0-3.33-1.28-5.99-3.82-8-2.55-2.01-5.49-3.05-8.81-3.15v-2.47h14.78c.99,0,1.66.18,1.98.54.33.36.49,1.14.49,2.36v23.18h6.53v-26.07h14.46v5.88c0,2.58.66,4.56,1.98,5.92,1.32,1.37,3.24,2.05,5.76,2.05,1.68,0,3.34-.39,4.99-1.17,0,2.36-.64,4.25-1.91,5.67-1.28,1.42-3.14,2.12-5.6,2.12-2.64,0-4.77-.98-6.39-2.94-1.62-1.96-2.43-4.82-2.43-8.58,0-1.34.06-2.57.19-3.68h-6.44c-.12,1.12-.19,2.44-.19,3.96,0,5.35,1.41,9.49,4.24,12.43,2.83,2.94,6.5,4.41,11.01,4.41,4.26,0,7.59-1.31,9.98-3.92,2.39-2.61,3.59-5.85,3.59-9.7,0-2.52-.45-4.88-1.35-7.09-3.86,1.93-6.65,2.89-8.39,2.89s-2.52-.82-2.52-2.47v-5.78h31.71v7.74c-1.83-2.83-4.56-4.24-8.16-4.24-2.71,0-4.82.86-6.34,2.57-1.52,1.71-2.29,3.79-2.29,6.25,0,.96.14,2.04.42,3.22h6.34c-.16-.84-.23-1.69-.23-2.56,0-1.12.28-2.02.84-2.71.56-.68,1.41-1.03,2.57-1.03,2.24,0,3.94.91,5.11,2.73,1.17,1.82,1.75,3.88,1.75,6.18v.33c0,2.46.9,4.42,2.71,5.88,1.8,1.46,3.96,2.19,6.48,2.19,3.76,0,6.8-1.29,9.12-3.87,2.32-2.58,3.47-5.52,3.47-8.81,0-2.92-.83-5.25-2.5-7-1.66-1.74-4-2.61-7.02-2.61-1,0-1.97.11-2.94.33v5.69c.62-.12,1.27-.19,1.96-.19,2.64,0,3.96,1.26,3.96,3.78,0,1.77-.55,3.4-1.66,4.87-1.1,1.48-2.57,2.22-4.41,2.22-.78,0-1.42-.22-1.91-.65-.5-.43-.75-1.04-.75-1.82v-18.47h17.72v-5.22h-3.82c.12-.71.19-1.45.19-2.19ZM72.64,67.09c-.87-1.21-2.3-1.82-4.29-1.82h-.19c-.96-3.85-3.25-6.56-6.86-8.12h11.33v9.93ZM98.06,76.42l-8.35-6.02c2.86-2.36,5.64-3.99,8.35-4.9v10.91Z"/>
      <path class="cls-1" d="M173.59,3.49h-35.23v-.97c0-1.39-1.13-2.52-2.52-2.52h-5.89c-1.39,0-2.52,1.13-2.52,2.52,0,0,0,.91,0,.97h-36.68v-.97c0-1.39-1.13-2.52-2.52-2.52h-6.11c-1.39,0-2.52,1.13-2.52,2.52v.78c-.76-.17-1.58-.25-2.45-.25-2.36,0-4.42.71-6.07,2.07-1.61-1.07-3.54-1.63-5.71-1.63h-4.15v-.97c0-1.39-1.13-2.52-2.52-2.52h-5.89c-1.39,0-2.52,1.13-2.52,2.52,0,0,0,.91,0,.97H2.52c-1.39,0-2.52,1.13-2.52,2.52v4.89c0,1.39,1.13,2.52,2.52,2.52h7.94s-.09.05-.14.08c-2.11,1.24-4.43,2.87-6.9,4.86-.6.48-.94,1.2-.94,1.97v5.85c0,.83.41,1.6,1.09,2.08l13.18,9.12c.43.3.94.45,1.44.45h5.94c1.39,0,2.52-1.13,2.52-2.52v-.44c.28.03.61.04,1.01.04,3.3,0,5.96-1.04,7.92-3.1,1.71-1.79,2.67-4.15,2.86-7.02.75,2.21.84,3.1.84,3.41,0,1.56-.77,3.47-2.3,5.68-.53.77-.6,1.78-.16,2.61.44.83,1.3,1.35,2.24,1.35h6.46c.84,0,1.62-.42,2.09-1.11,1.17-1.74,1.98-3.52,2.41-5.34v3.93c0,1.39,1.13,2.52,2.52,2.52h6.11c1.39,0,2.52-1.13,2.52-2.52v-9.51c.27.18.58.31.91.38,1.18.24,2.31.35,3.38.35,2.26,0,4.19-.54,5.79-1.62,1.61,1.07,3.65,1.62,6.08,1.62.81,0,1.56-.05,2.23-.15v8.94c0,1.39,1.13,2.52,2.52,2.52h6.11c1.39,0,2.52-1.13,2.52-2.52v-7.49c.14.17.31.32.49.45l13.18,9.12c.43.3.94.45,1.44.45h5.94c.96,0,1.8-.54,2.23-1.33.44.82,1.29,1.33,2.23,1.33h6.46c.84,0,1.62-.42,2.09-1.11,1.17-1.74,1.98-3.52,2.41-5.34v3.93c0,1.39,1.13,2.52,2.52,2.52h6.11c1.39,0,2.52-1.13,2.52-2.52v-7.49c.14.17.31.32.49.45l13.18,9.12c.43.3.94.45,1.44.45h5.94c1.39,0,2.52-1.13,2.52-2.52v-.44c.28.03.61.04,1.01.04,3.3,0,5.96-1.04,7.92-3.1,1.92-2.02,2.9-4.77,2.9-8.16,0-3.91-1.53-7.1-4.54-9.47-.34-.27-.68-.52-1.03-.75h5.41c1.39,0,2.52-1.13,2.52-2.52v-4.89c0-1.39-1.13-2.52-2.52-2.52Z"/>
      <path class="cls-2" d="M173.59,10.9v-4.89h-37.76v-3.49h-5.89v.79c0,1.22.15,2.62.44,4.19-.5-.99-1.22-1.48-2.18-1.48h-39.98v-3.49h-6.11v5.06c-1.11-1.34-2.77-2.01-4.98-2.01-2.56,0-4.53,1.03-5.89,3.1-1.43-1.77-3.39-2.66-5.89-2.66h-6.68v-3.49h-5.89v.79c0,1.22.15,2.62.44,4.19-.5-.99-1.22-1.48-2.18-1.48H2.52v4.89h15.71v2.31c-2.42.47-4.63,1.29-6.63,2.47-2.01,1.18-4.21,2.73-6.59,4.65v5.85l13.18,9.12.04-.04v.04h5.89v-16.76c1.89.12,3.35.64,4.39,1.57,1.03.93,1.55,2.11,1.55,3.54,0,2.12-.96,3.19-2.88,3.19h-.44v5.5c.2.03.51.04.92.04,2.59,0,4.62-.77,6.09-2.31,1.47-1.54,2.2-3.68,2.2-6.42,0-3.11-1.19-5.61-3.58-7.49-2.39-1.88-5.14-2.86-8.25-2.95v-2.31h18.25c-.96.67-1.76,1.55-2.4,2.64-.64,1.09-.96,2.28-.96,3.56s.47,3.14,1.4,5.67c.93,2.53,1.4,4.34,1.4,5.41,0,2.09-.92,4.47-2.75,7.11h6.46c1.57-2.33,2.36-4.7,2.36-7.11,0-1.11-.47-2.95-1.4-5.52-.93-2.58-1.4-4.47-1.4-5.7,0-1.45.36-2.71,1.09-3.75.73-1.05,1.6-1.82,2.62-2.31h1.44c.93,0,1.55.17,1.86.5.31.33.46,1.07.46,2.2v21.69h6.11V10.9h5.76c1.25,0,2.23.35,2.95,1.05.71.7,1.07,1.64,1.07,2.84,0,2.5-1.24,3.75-3.71,3.75-.73,0-1.44-.06-2.14-.17v5.33c1.02.2,1.98.31,2.88.31,2.5,0,4.44-.83,5.81-2.49,1.28,1.66,3.3,2.49,6.07,2.49.81,0,1.53-.06,2.14-.17v-5.33c-.26.03-.73.04-1.4.04-1.11,0-2-.31-2.68-.92-.68-.61-1.03-1.56-1.03-2.84,0-1.19.32-2.15.96-2.88.64-.73,1.53-1.09,2.66-1.09,2.73,0,4.1,1.69,4.1,5.06v19.42h6.11V10.9h17.68v2.4c-4.6,1.25-9.01,3.59-13.23,7.03v5.85l13.18,9.12.04-.04v.04h5.89V10.9h7.77c-.96.67-1.76,1.55-2.4,2.64-.64,1.09-.96,2.28-.96,3.56s.47,3.14,1.4,5.67c.93,2.53,1.4,4.34,1.4,5.41,0,2.09-.92,4.47-2.75,7.11h6.46c1.57-2.33,2.36-4.7,2.36-7.11,0-1.11-.47-2.95-1.4-5.52-.93-2.58-1.4-4.47-1.4-5.7,0-1.45.36-2.71,1.09-3.75.73-1.05,1.6-1.82,2.62-2.31h1.44c.93,0,1.55.17,1.86.5.31.33.46,1.07.46,2.2v21.69h6.11V10.9h17.68v2.31c-2.42.47-4.63,1.29-6.63,2.47-2.01,1.18-4.21,2.73-6.59,4.65v5.85l13.18,9.12.04-.04v.04h5.89v-16.76c1.89.12,3.35.64,4.39,1.57,1.03.93,1.55,2.11,1.55,3.54,0,2.12-.96,3.19-2.88,3.19h-.44v5.5c.2.03.51.04.92.04,2.59,0,4.62-.77,6.09-2.31,1.47-1.54,2.2-3.68,2.2-6.42,0-3.11-1.19-5.61-3.58-7.49-2.39-1.88-5.14-2.86-8.25-2.95v-2.31h14.19ZM18.24,28.93l-7.81-5.63c2.68-2.21,5.28-3.74,7.81-4.58v10.21ZM105.89,28.93l-7.73-5.59c2.15-1.63,4.73-3.04,7.73-4.23v9.82ZM153.51,28.93l-7.81-5.63c2.68-2.21,5.28-3.74,7.81-4.58v10.21Z"/>
      <g>
        <path class="cls-1" d="M199.75,37.8c-2.32,0-4.54-.38-6.57-1.12-2.07-.75-3.97-1.9-5.65-3.41-1.74-1.57-3.11-3.68-4.06-6.27-.91-2.48-1.38-5.33-1.38-8.47,0-.56.03-1.41.1-2.59.07-1.34,1.18-2.38,2.52-2.38h4.27c-.17-.83-.26-1.65-.26-2.46,0-2.9,1.09-5.39,3.15-7.22,2-1.78,4.67-2.68,7.93-2.68,3.53,0,6.48,1.02,8.77,3.03,2.38,2.09,3.58,4.83,3.58,8.15,0,2.62-.77,4.84-2.29,6.59-.08.1-.17.19-.25.28.39.27.75.57,1.1.89,1.83,1.74,2.76,4,2.76,6.72,0,3.55-1.48,6.43-4.28,8.34-2.53,1.73-5.71,2.6-9.44,2.6Z"/>
        <path class="cls-2" d="M210.94,26.86c0,2.73-1.06,4.81-3.17,6.25-2.12,1.44-4.79,2.16-8.02,2.16-2.04,0-3.94-.32-5.71-.96-1.77-.64-3.38-1.61-4.82-2.92-1.44-1.3-2.57-3.06-3.39-5.27-.82-2.21-1.22-4.74-1.22-7.59,0-.5.03-1.32.09-2.45h6.21c-.03.47-.05,1.14-.05,2.02,0,7.74,2.96,11.61,8.89,11.61,3.07,0,4.61-1.16,4.61-3.48s-2.07-3.48-6.21-3.48h-1.55v-5.55h1.08c1.57,0,2.82-.4,3.76-1.2.94-.8,1.41-1.98,1.41-3.55,0-1.07-.24-1.91-.73-2.54-.49-.63-1.18-.94-2.09-.94-.85,0-1.5.27-1.95.8-.45.53-.68,1.24-.68,2.12s.12,1.74.38,2.49h-5.97c-.38-1.13-.56-2.23-.56-3.29,0-2.19.77-3.97,2.3-5.34,1.54-1.36,3.62-2.05,6.25-2.05,2.92,0,5.28.8,7.1,2.4,1.82,1.6,2.73,3.68,2.73,6.25,0,2.01-.56,3.65-1.67,4.94-1.11,1.29-2.61,2.1-4.49,2.45,2.35.22,4.19.96,5.5,2.21,1.32,1.25,1.97,2.88,1.97,4.89Z"/>
      </g>
      <g>
        <path class="cls-3" d="M200.37,48.66c0-2.33-.65-4.14-1.96-5.43-1.31-1.29-3.19-1.94-5.64-1.94-1.28,0-3.01.19-5.2.56-2.19.37-3.77.56-4.73.56-1.87,0-3.28-.26-4.24-.79v4.99c1.15.68,2.77,1.03,4.85,1.03.99,0,2.5-.15,4.52-.44,2.02-.3,3.37-.44,4.06-.44.96,0,1.61.23,1.94.7.33.47.49,1.18.49,2.15,0,.06,0,.25-.02.56-.02.31-.02.54-.02.7h-36.33c.12-.99.19-1.8.19-2.43,0-2.27-.72-4.03-2.15-5.27-1.43-1.24-3.4-1.87-5.92-1.87-1.12,0-3.08.19-5.88.56-2.8.37-4.6.56-5.41.56-2.02,0-3.68-.26-4.99-.79v4.99c1.21.68,3.06,1.03,5.55,1.03,1.15,0,2.87-.15,5.15-.44,2.29-.3,3.85-.44,4.69-.44,2.02,0,3.03.87,3.03,2.61,0,.37-.03.87-.09,1.49h-25.18v-3.73h-6.3v.84c0,1.31.16,2.8.47,4.48-.53-1.06-1.31-1.59-2.33-1.59H17.83v-2.01c0-3.02,1.96-4.52,5.88-4.52,1.96,0,4.08.23,6.37.68,2.29.45,4.11.93,5.48,1.42v-4.94c-1.28-.56-3.1-1.1-5.48-1.61-2.38-.51-4.67-.77-6.88-.77-3.7,0-6.62.81-8.74,2.43-2.13,1.62-3.19,4.07-3.19,7.37v1.96h-3.96v5.22h3.96v26.07h6.53v-26.07h14.46v5.88c0,2.58.66,4.56,1.98,5.92,1.32,1.37,3.24,2.05,5.76,2.05,1.68,0,3.34-.39,4.99-1.17,0,2.36-.64,4.25-1.91,5.67-1.28,1.42-3.14,2.12-5.6,2.12-2.64,0-4.77-.98-6.39-2.94-1.62-1.96-2.43-4.82-2.43-8.58,0-1.34.06-2.57.19-3.68h-6.44c-.12,1.12-.19,2.44-.19,3.96,0,5.35,1.41,9.49,4.24,12.43,2.83,2.94,6.5,4.41,11.01,4.41,4.26,0,7.59-1.31,9.98-3.92,2.39-2.61,3.59-5.85,3.59-9.7,0-2.52-.45-4.88-1.35-7.09-3.86,1.93-6.65,2.89-8.39,2.89s-2.52-.82-2.52-2.47v-5.78h15.44v4.9c2.05,0,3.74.53,5.06,1.59,1.32,1.06,2.17,2.63,2.54,4.71-.19.25-.54.77-1.07,1.56-.53.79-.93,1.35-1.19,1.66-.26.31-.67.63-1.21.96-.54.33-1.11.49-1.7.49-.96,0-1.87-.12-2.71-.37v5.36c1.15.37,2.36.56,3.64.56,1.43,0,2.67-.26,3.73-.79,1.06-.53,1.89-1.18,2.5-1.96.61-.78,1.15-1.55,1.63-2.31.48-.76.99-1.41,1.54-1.94.54-.53,1.13-.79,1.75-.79,1.9,0,2.84,1.52,2.84,4.57v7.88h6.53v-26.07h18.89v2.47c-2.58.5-4.94,1.38-7.09,2.63-2.15,1.26-4.49,2.91-7.04,4.97v6.25l14.08,9.75.05-.05v.05h6.3v-17.91c2.02.12,3.58.68,4.69,1.68,1.1,1,1.66,2.25,1.66,3.78,0,2.27-1.03,3.4-3.08,3.4h-.47v5.88c.22.03.54.05.98.05,2.77,0,4.94-.82,6.51-2.47,1.57-1.65,2.36-3.93,2.36-6.86,0-3.33-1.28-5.99-3.82-8-2.55-2.01-5.49-3.05-8.81-3.15v-2.47h14.78c.99,0,1.66.18,1.98.54.33.36.49,1.14.49,2.36v23.18h6.53v-26.07h14.46v5.88c0,2.58.66,4.56,1.98,5.92,1.32,1.37,3.24,2.05,5.76,2.05,1.68,0,3.34-.39,4.99-1.17,0,2.36-.64,4.25-1.91,5.67-1.28,1.42-3.14,2.12-5.6,2.12-2.64,0-4.77-.98-6.39-2.94-1.62-1.96-2.43-4.82-2.43-8.58,0-1.34.06-2.57.19-3.68h-6.44c-.12,1.12-.19,2.44-.19,3.96,0,5.35,1.41,9.49,4.24,12.43,2.83,2.94,6.5,4.41,11.01,4.41,4.26,0,7.59-1.31,9.98-3.92,2.39-2.61,3.59-5.85,3.59-9.7,0-2.52-.45-4.88-1.35-7.09-3.86,1.93-6.65,2.89-8.39,2.89s-2.52-.82-2.52-2.47v-5.78h31.71v7.74c-1.83-2.83-4.56-4.24-8.16-4.24-2.71,0-4.82.86-6.34,2.57-1.52,1.71-2.29,3.79-2.29,6.25,0,.96.14,2.04.42,3.22h6.34c-.16-.84-.23-1.69-.23-2.56,0-1.12.28-2.02.84-2.71.56-.68,1.41-1.03,2.57-1.03,2.24,0,3.94.91,5.11,2.73,1.17,1.82,1.75,3.88,1.75,6.18v.33c0,2.46.9,4.42,2.71,5.88,1.8,1.46,3.96,2.19,6.48,2.19,3.76,0,6.8-1.29,9.12-3.87,2.32-2.58,3.47-5.52,3.47-8.81,0-2.92-.83-5.25-2.5-7-1.66-1.74-4-2.61-7.02-2.61-1,0-1.97.11-2.94.33v5.69c.62-.12,1.27-.19,1.96-.19,2.64,0,3.96,1.26,3.96,3.78,0,1.77-.55,3.4-1.66,4.87-1.1,1.48-2.57,2.22-4.41,2.22-.78,0-1.42-.22-1.91-.65-.5-.43-.75-1.04-.75-1.82v-18.47h17.72v-5.22h-3.82c.12-.71.19-1.45.19-2.19ZM71.56,66.01c-.87-1.21-2.3-1.82-4.29-1.82h-.19c-.96-3.85-3.25-6.56-6.86-8.12h11.33v9.93ZM96.98,75.34l-8.35-6.02c2.86-2.36,5.64-3.99,8.35-4.9v10.91Z"/>
        <path class="cls-3" d="M172.51,9.82v-4.89h-37.76V1.44h-5.89v.79c0,1.22.15,2.62.44,4.19-.5-.99-1.22-1.48-2.18-1.48h-39.98V1.44h-6.11v5.06c-1.11-1.34-2.77-2.01-4.98-2.01-2.56,0-4.53,1.03-5.89,3.1-1.43-1.77-3.39-2.66-5.89-2.66h-6.68V1.44h-5.89v.79c0,1.22.15,2.62.44,4.19-.5-.99-1.22-1.48-2.18-1.48H1.44v4.89h15.71v2.31c-2.42.47-4.63,1.29-6.63,2.47-2.01,1.18-4.21,2.73-6.59,4.65v5.85l13.18,9.12.04-.04v.04h5.89v-16.76c1.89.12,3.35.64,4.39,1.57,1.03.93,1.55,2.11,1.55,3.54,0,2.12-.96,3.19-2.88,3.19h-.44v5.5c.2.03.51.04.92.04,2.59,0,4.62-.77,6.09-2.31,1.47-1.54,2.2-3.68,2.2-6.42,0-3.11-1.19-5.61-3.58-7.49-2.39-1.88-5.14-2.86-8.25-2.95v-2.31h18.25c-.96.67-1.76,1.55-2.4,2.64-.64,1.09-.96,2.28-.96,3.56s.47,3.14,1.4,5.67c.93,2.53,1.4,4.34,1.4,5.41,0,2.09-.92,4.47-2.75,7.11h6.46c1.57-2.33,2.36-4.7,2.36-7.11,0-1.11-.47-2.95-1.4-5.52-.93-2.58-1.4-4.47-1.4-5.7,0-1.45.36-2.71,1.09-3.75.73-1.05,1.6-1.82,2.62-2.31h1.44c.93,0,1.55.17,1.86.5.31.33.46,1.07.46,2.2v21.69h6.11V9.82h5.76c1.25,0,2.23.35,2.95,1.05.71.7,1.07,1.64,1.07,2.84,0,2.5-1.24,3.75-3.71,3.75-.73,0-1.44-.06-2.14-.17v5.33c1.02.2,1.98.31,2.88.31,2.5,0,4.44-.83,5.81-2.49,1.28,1.66,3.3,2.49,6.07,2.49.81,0,1.53-.06,2.14-.17v-5.33c-.26.03-.73.04-1.4.04-1.11,0-2-.31-2.68-.92-.68-.61-1.03-1.56-1.03-2.84,0-1.19.32-2.15.96-2.88.64-.73,1.53-1.09,2.66-1.09,2.73,0,4.1,1.69,4.1,5.06v19.42h6.11V9.82h17.68v2.4c-4.6,1.25-9.01,3.59-13.23,7.03v5.85l13.18,9.12.04-.04v.04h5.89V9.82h7.77c-.96.67-1.76,1.55-2.4,2.64-.64,1.09-.96,2.28-.96,3.56s.47,3.14,1.4,5.67c.93,2.53,1.4,4.34,1.4,5.41,0,2.09-.92,4.47-2.75,7.11h6.46c1.57-2.33,2.36-4.7,2.36-7.11,0-1.11-.47-2.95-1.4-5.52-.93-2.58-1.4-4.47-1.4-5.7,0-1.45.36-2.71,1.09-3.75.73-1.05,1.6-1.82,2.62-2.31h1.44c.93,0,1.55.17,1.86.5.31.33.46,1.07.46,2.2v21.69h6.11V9.82h17.68v2.31c-2.42.47-4.63,1.29-6.63,2.47-2.01,1.18-4.21,2.73-6.59,4.65v5.85l13.18,9.12.04-.04v.04h5.89v-16.76c1.89.12,3.35.64,4.39,1.57,1.03.93,1.55,2.11,1.55,3.54,0,2.12-.96,3.19-2.88,3.19h-.44v5.5c.2.03.51.04.92.04,2.59,0,4.62-.77,6.09-2.31,1.47-1.54,2.2-3.68,2.2-6.42,0-3.11-1.19-5.61-3.58-7.49-2.39-1.88-5.14-2.86-8.25-2.95v-2.31h14.19ZM17.16,27.85l-7.81-5.63c2.68-2.21,5.28-3.74,7.81-4.58v10.21ZM104.8,27.85l-7.73-5.59c2.15-1.63,4.73-3.04,7.73-4.23v9.82ZM152.43,27.85l-7.81-5.63c2.68-2.21,5.28-3.74,7.81-4.58v10.21Z"/>
        <path class="cls-3" d="M209.85,25.69c0,2.73-1.06,4.81-3.17,6.25-2.12,1.44-4.79,2.16-8.02,2.16-2.04,0-3.94-.32-5.71-.96-1.77-.64-3.38-1.61-4.82-2.92-1.44-1.3-2.57-3.06-3.39-5.27-.82-2.21-1.22-4.74-1.22-7.59,0-.5.03-1.32.09-2.45h6.21c-.03.47-.05,1.14-.05,2.02,0,7.74,2.96,11.61,8.89,11.61,3.07,0,4.61-1.16,4.61-3.48s-2.07-3.48-6.21-3.48h-1.55v-5.55h1.08c1.57,0,2.82-.4,3.76-1.2.94-.8,1.41-1.98,1.41-3.55,0-1.07-.24-1.91-.73-2.54-.49-.63-1.18-.94-2.09-.94-.85,0-1.5.27-1.95.8-.45.53-.68,1.24-.68,2.12s.12,1.74.38,2.49h-5.97c-.38-1.13-.56-2.23-.56-3.29,0-2.19.77-3.97,2.3-5.34,1.54-1.36,3.62-2.05,6.25-2.05,2.92,0,5.28.8,7.1,2.4,1.82,1.6,2.73,3.68,2.73,6.25,0,2.01-.56,3.65-1.67,4.94-1.11,1.29-2.61,2.1-4.49,2.45,2.35.22,4.19.96,5.5,2.21,1.32,1.25,1.97,2.88,1.97,4.89Z"/>
      </g>
    </g>
  </g>
</svg>