<?xml version="1.0" encoding="UTF-8"?>
<svg id="Layer_2" data-name="Layer 2" xmlns="http://www.w3.org/2000/svg" viewBox="0 0 131.87 31.31">
  <defs>
    <style>
      .cls-1 {
        fill: #fff;
      }

      .cls-1, .cls-2, .cls-3 {
        stroke-width: 0px;
      }

      .cls-2 {
        fill: #dc156e;
      }

      .cls-3 {
        fill: #fd0;
      }
    </style>
  </defs>
  <g id="Layer_1-2" data-name="Layer 1">
    <g>
      <path class="cls-1" d="M123.76,31.19l8.11-15.6L123.76,0H21.53v.03h-9.44C5.69.03,0,6.03,0,11.53v7.87c0,6.59,5.34,11.92,11.93,11.92l111.83-.12Z"/>
      <polygon class="cls-3" points="131.87 15.6 123.76 0 78.95 0 78.95 31.22 123.76 31.19 131.87 15.6"/>
      <g>
        <g>
          <path class="cls-2" d="M14.93,10.65c0,.66-.18,1.17-.54,1.53-.36.36-.82.54-1.39.54-.1,0-.18,0-.22-.01v-.96h.13c.66,0,.99-.37.99-1.1,0-.47-.18-.85-.53-1.14-.35-.29-.82-.45-1.41-.47v4.62h-1.03l-3.4-2.52v-1.11c1.23-1.08,2.36-1.71,3.4-1.89v-.72h-4.06v-.88h8.71v.88h-3.61v.7c.83.01,1.54.25,2.11.72.57.46.86,1.07.86,1.81ZM10.93,12.51v-3.42c-.77.2-1.6.71-2.49,1.51l2.49,1.91Z"/>
          <path class="cls-2" d="M13.35,15.9c-.42-.5-.87-.92-1.35-1.26-.09.43-.27.78-.53,1.04-.26.26-.6.39-1.02.39-.45,0-.83-.13-1.12-.38-.29-.25-.44-.58-.44-.99,0-.43.15-.77.45-1.02.3-.25.69-.38,1.18-.38.55,0,1.07.15,1.56.45.49.3.91.66,1.26,1.08v1.07ZM10.45,15.31c.48,0,.76-.36.84-1.07-.28-.11-.53-.16-.77-.16s-.41.05-.54.16c-.14.11-.2.26-.2.47,0,.19.06.34.18.45.12.11.28.16.49.16Z"/>
          <path class="cls-2" d="M16.01,10.9l1.06-.62c-.24-.47-.64-.81-1.19-1.01v-.5c0-.61.2-1.14.6-1.62.4-.47.96-.71,1.68-.71.79,0,1.35.27,1.69.82v-1.62h1.04v.91h1.15v.88h-1.15v6.24h-1.04v-3.95l-3.83,2.3v-1.12ZM16.9,8.77c.42.2.75.54.99,1.02l1.92-1.14c-.07-.39-.22-.71-.48-.95-.25-.24-.59-.36-1.01-.36s-.78.13-1.03.4c-.25.27-.38.61-.38,1.02Z"/>
          <path class="cls-2" d="M27.2,13.67h-1.05v-.03c-.04-.41-.11-.8-.19-1.17-.08-.37-.2-.72-.35-1.06-.15-.34-.33-.6-.56-.81-.23-.2-.49-.3-.78-.3-.33,0-.58.1-.75.31-.17.2-.26.48-.26.82,0,.15.01.32.04.53h-1.02c-.04-.18-.07-.39-.07-.61,0-.56.17-1.03.51-1.41.34-.38.81-.57,1.41-.57.92,0,1.59.49,2,1.47v-3.41h-4.56v-.88h6.71v.88h-1.11v6.24Z"/>
        </g>
        <g>
          <path class="cls-2" d="M9.48,24.36c-.12.01-.22.02-.32.02-.71,0-1.24-.27-1.59-.82-.35-.55-.53-1.28-.55-2.21,0-.55.04-1.05.12-1.52.08-.46.21-.91.39-1.33.18-.42.45-.75.8-.99s.77-.36,1.26-.36h.22v.88h-.2c-1.04,0-1.56,1.1-1.56,3.31,0,1.4.4,2.1,1.2,2.1h.22v.91Z"/>
          <path class="cls-2" d="M17.43,21.27c0,.66-.18,1.17-.54,1.53-.36.36-.82.54-1.39.54-.1,0-.18,0-.22-.01v-.96h.13c.66,0,.99-.37.99-1.1,0-.47-.18-.85-.53-1.14-.35-.29-.82-.45-1.41-.47v4.62h-1.03l-3.4-2.52v-1.11c1.23-1.08,2.36-1.71,3.4-1.89v-.72h-4.06v-.88h8.71v.88h-3.61v.7c.83.01,1.54.25,2.11.72.57.46.86,1.07.86,1.81ZM13.43,23.12v-3.42c-.77.2-1.6.71-2.49,1.51l2.49,1.91Z"/>
          <path class="cls-2" d="M20.98,18.04h-1.15v6.24h-1.04v-5.42c0-.28-.05-.49-.14-.62-.1-.13-.27-.2-.53-.2h-.48v-.88h.57c.31,0,.54.15.7.45-.07-.38-.1-.74-.1-1.07v-.28h1.02v.91h1.15v.88Z"/>
          <path class="cls-2" d="M27.48,21.15c0,.87-.26,1.59-.78,2.16-.52.57-1.23.85-2.15.85-.99,0-1.78-.33-2.36-1-.58-.67-.87-1.57-.87-2.7,0-.27.02-.58.05-.92h1.04c-.03.26-.04.56-.04.89,0,.87.19,1.56.57,2.06.38.5.92.76,1.61.76.63,0,1.11-.19,1.43-.57s.49-.9.49-1.56c0-.12,0-.21-.01-.27-.45.26-.9.38-1.34.38-.48,0-.86-.14-1.13-.42-.27-.28-.41-.67-.41-1.17v-1.59h-3.04v-.88h7.67v.88h-3.57v1.58c0,.45.21.68.64.68.45,0,1.09-.25,1.93-.74.18.5.27,1.03.27,1.6Z"/>
        </g>
      </g>
      <g>
        <path class="cls-2" d="M33.42,23.38V6.51h5.43c1.49,0,2.83.34,4.02,1.01,1.19.68,2.12,1.63,2.79,2.86.67,1.23,1.01,2.61,1.01,4.14v.78c0,1.55-.33,2.93-.98,4.15-.65,1.22-1.57,2.18-2.76,2.87s-2.51,1.04-3.97,1.05h-5.55ZM37.49,9.65v10.6h1.41c1.17,0,2.06-.41,2.69-1.25.63-.83.94-2.06.94-3.7v-.73c0-1.63-.31-2.86-.94-3.68-.63-.83-1.54-1.24-2.73-1.24h-1.37Z"/>
        <path class="cls-2" d="M57.17,23.38h-3.92v-12.47l-3.85,1.12v-2.97l7.4-2.56h.36v16.87Z"/>
        <path class="cls-2" d="M73.97,16.49c0,2.28-.51,4.04-1.54,5.27-1.02,1.24-2.47,1.85-4.33,1.85s-3.33-.62-4.36-1.87c-1.03-1.24-1.54-3-1.54-5.26v-3.08c0-2.28.51-4.04,1.53-5.27s2.47-1.85,4.34-1.85,3.32.62,4.34,1.87,1.54,3,1.54,5.27v3.07ZM70.06,12.91c0-1.21-.16-2.12-.48-2.72-.32-.6-.82-.9-1.51-.9s-1.16.28-1.47.83c-.31.56-.47,1.4-.49,2.53v4.31c0,1.26.16,2.18.47,2.76s.82.87,1.51.87,1.15-.28,1.47-.85c.32-.57.48-1.46.49-2.67v-4.17Z"/>
      </g>
      <rect class="cls-2" x="80.76" y="8.18" width="46.44" height="14.44" rx="7.22" ry="7.22"/>
      <g>
        <path class="cls-1" d="M86.41,18.97c-.07.01-.19.02-.36.02-.74,0-1.3-.28-1.68-.84s-.58-1.33-.59-2.3c0-.6.03-1.15.11-1.64.08-.49.22-.94.41-1.37.19-.42.48-.75.85-.99.37-.24.81-.35,1.34-.35h.29v1.06h-.27c-.31,0-.56.09-.77.27-.21.18-.36.45-.46.79-.1.34-.16.68-.2,1.02-.03.34-.05.74-.05,1.19,0,1.34.38,2,1.14,2,.11,0,.19,0,.24-.01v1.13Z"/>
        <path class="cls-1" d="M93.27,12.57h-1.07v6.32h-1.3l-3.85-1.71h.01v-1.29l1.78-1.24-1.76-1.12v-.96h-.75v-1.06h6.94v1.06ZM90.03,14.07v1.16l-1.65,1.2,2.52,1.18v-5.04h-3.06l2.18,1.5Z"/>
        <path class="cls-1" d="M96.26,12.57h-1.06v6.32h-1.3v-5.55c0-.29-.04-.49-.13-.6s-.26-.17-.51-.17h-.43v-1.06h.57c.29,0,.51.15.65.44-.07-.42-.11-.78-.11-1.1v-.25h1.26v.91h1.06v1.06Z"/>
        <path class="cls-1" d="M101.94,18.89h-1.3v-4.62c0-1.16-.48-1.75-1.44-1.75-.81,0-1.26.37-1.37,1.12.6.01,1.08.18,1.46.49.38.31.57.75.58,1.32,0,.63-.23,1.11-.66,1.44-.43.33-1.01.5-1.75.5-.31,0-.62-.03-.95-.1v-1.07c.3.03.62.05.95.05.73,0,1.1-.27,1.1-.8s-.37-.79-1.1-.79h-.92v-.69c0-.72.22-1.34.65-1.84.44-.5,1.03-.75,1.77-.75.79,0,1.35.25,1.67.76v-1.56h1.3v.91h1.07v1.06h-1.07v6.32Z"/>
        <path class="cls-1" d="M113.66,15.86c0,.69-.19,1.22-.56,1.6-.37.38-.87.57-1.49.57-.1,0-.17,0-.22-.01v-1.19h.12c.59,0,.88-.32.88-.97,0-.43-.16-.77-.48-1.05-.32-.27-.75-.42-1.29-.45v4.53h-1.26s-.01,0-.01,0l-3.43-2.46v-1.3c1.25-1.07,2.4-1.7,3.44-1.89v-.67h-4.1v-1.06h9.03v1.06h-3.67v.66c.83.01,1.54.26,2.14.74.6.48.9,1.11.9,1.89ZM109.36,17.49v-3.08c-.72.21-1.48.66-2.29,1.37l2.29,1.71Z"/>
        <path class="cls-1" d="M117.29,18.97c-.07.01-.19.02-.38.02-.52,0-.95-.15-1.29-.45-.35-.3-.59-.68-.73-1.13-.14-.45-.22-.97-.22-1.56,0-1.61.27-2.71.81-3.28h-1.62v-1.06h3.82v1.06h-.29c-.29,0-.54.09-.74.27s-.35.43-.45.76c-.1.33-.17.67-.21,1.02s-.06.76-.06,1.23c0,1.34.38,2,1.14,2,.11,0,.19,0,.24-.01v1.13Z"/>
        <path class="cls-1" d="M123.64,12.57h-1.06v6.32h-1.26s-.01,0-.01,0l-3.43-2.46v-1.3c1.09-.93,2.23-1.56,3.44-1.88v-.68h-4.1v-1.06h6.42v1.06ZM119.23,18.63c0,.21-.07.39-.22.53-.15.15-.33.22-.54.22s-.39-.07-.53-.22c-.15-.15-.22-.32-.22-.53s.07-.39.22-.54c.15-.15.32-.22.53-.22s.39.07.54.22.22.33.22.54ZM121.31,17.48v-3c-.84.31-1.6.75-2.28,1.3l2.28,1.7Z"/>
      </g>
    </g>
  </g>
</svg>