<?xml version="1.0" encoding="UTF-8"?>
<svg id="Layer_2" data-name="Layer 2" xmlns="http://www.w3.org/2000/svg" viewBox="0 0 93.73 42.88">
  <defs>
    <style>
      .cls-1 {
        fill: #d02053;
      }

      .cls-1, .cls-2, .cls-3, .cls-4 {
        stroke-width: 0px;
      }

      .cls-2 {
        fill: #9d1638;
      }

      .cls-3 {
        fill: #231f20;
      }

      .cls-4 {
        fill: #e2126e;
      }
    </style>
  </defs>
  <g id="Layer_1-2" data-name="Layer 1">
    <g>
      <g>
        <polygon class="cls-1" points="64.81 20.47 67.47 32.42 84.87 23.61 64.81 20.47"/>
        <polygon class="cls-4" points="69.76 2.61 64.82 20.47 84.87 23.61 69.76 2.61"/>
        <polygon class="cls-1" points="48.51 0 69.25 2.48 64.35 20.23 48.51 0"/>
        <polygon class="cls-2" points="48.35 3.49 50.66 3.49 57.14 11.78 48.35 3.49"/>
        <polygon class="cls-1" points="85.42 23.5 79.39 15.16 89.14 13.41 85.42 23.5"/>
        <polygon class="cls-4" points="84.41 25.95 85.03 24.09 69.81 31.81 84.41 25.95"/>
        <polygon class="cls-2" points="64.39 20.94 67.56 35.22 58.14 42.88 64.39 20.94"/>
        <polygon class="cls-4" points="88.19 17.65 93.73 17.56 89.73 13.49 88.19 17.65"/>
      </g>
      <path class="cls-3" d="M49.91,17.08v1.54c-.56-.89-2.15-1.48-3.03-1.36-.89.13-2.26.85-3,2.46-.82-1.7-2.39-2.67-3.56-2.67h-3.64v1.81h2.37c1.05,0,2.14-.11,3.12.78.42.39.58.82.71,1.37.3,1.4-.31,3.09-1.94,3.13-.49.01-1.06-.03-1.53-.18l-.12.13c.4.52.69,1.11,1,1.67.95-.17,1.92-.74,2.57-1.4.45-.45.8-.93,1.03-1.46.21.52.52,1.01.92,1.46.59.65,1.47,1.23,2.31,1.4.28-.57.55-1.15.91-1.67l-.11-.13c-.42.14-.94.19-1.38.18-1.69-.05-2-1.78-1.73-3.13.23-1.15,1.25-2.28,2.26-2.36,1.12-.09,2.49.85,2.77,2.01.15.62.2,1.3.2,1.94v10.53s.51-.08.81-.08c.32,0,.82.08.82.08v-16.06h-1.75Z"/>
      <path class="cls-4" d="M6.37,10.97c2.85-.29,7.22,3.39,7.57,4.19l.27-.04v-2.11c-2-1.06-4.79-3.23-8.49-2.96C1.61,10.33,0,12.74,0,17v.06s0,1.81,0,1.81v14.28s.45-.08.77-.08c.33,0,.87.08.87.08v-14.28h10.91v1.17c-5.99.11-8.59,3.45-8.59,6.32,0,3.5,3.61,6.79,9.96,6.79h.28v-16.09H1.81l-.02-.04c-.1-.22-.12-.95-.12-.95-.03-2.73,1.78-4.81,4.71-5.09ZM6.11,26.46c0-2.53,2.8-4.95,6.45-5.47v11.48c-4.01-.7-6.45-3.84-6.45-6.01Z"/>
      <path class="cls-3" d="M14.64,17.05v1.81h11.23v1.17c-5.99.11-8.59,3.45-8.59,6.32,0,3.5,3.62,6.79,9.96,6.79h.28v-11.94c.1,0,.17,0,.17,0,2.02-.05,3.22,1.22,3.28,2.88.07,1.61-1.18,2.51-1.78,2.68v.24s1.54-.05,1.54-.05c.86-1.08,1.41-2.29,1.36-3.59-.09-2.27-1.61-3.36-4.58-3.32v-1.17h7.11v14.28s.48-.08.81-.08c.31,0,.84.08.84.08v-16.09H14.64ZM19.41,26.46c0-2.53,2.8-4.95,6.45-5.47v11.48c-4.01-.7-6.45-3.84-6.45-6.01Z"/>
    </g>
  </g>
</svg>